<svg data-name="Layer 1" xmlns="http://www.w3.org/2000/svg" viewBox="0 0 94 94"><path d="M62.81 25.54H44a3.72 3.72 0 0 1-3.71-3.71V9.59A3.71 3.71 0 0 1 44 5.89h18.81a3.71 3.71 0 0 1 3.71 3.7v12.24a3.71 3.71 0 0 1-3.71 3.71zM44 7.39a2.21 2.21 0 0 0-2.21 2.2v12.24A2.21 2.21 0 0 0 44 24h18.81A2.21 2.21 0 0 0 65 21.83V9.59a2.21 2.21 0 0 0-2.21-2.2z"/><path d="M53.39 17.9a2.93 2.93 0 0 1-2-.78L41.48 8a.76.76 0 0 1 0-1.06.75.75 0 0 1 1.06 0L52.41 16a1.45 1.45 0 0 0 2 0l9.91-9.17a.75.75 0 1 1 1 1.1l-9.91 9.17a2.93 2.93 0 0 1-2.02.8zM88.61 47.37h-18a4.14 4.14 0 0 1-4.14-4.13V31.86a4.15 4.15 0 0 1 4.14-4.14h18a4.15 4.15 0 0 1 4.14 4.14v11.38a4.14 4.14 0 0 1-4.14 4.13zm-18-18.15A2.64 2.64 0 0 0 68 31.86v11.38a2.64 2.64 0 0 0 2.64 2.63h18a2.64 2.64 0 0 0 2.64-2.63V31.86a2.64 2.64 0 0 0-2.64-2.64z"/><path d="M78.07 42.17a1.76 1.76 0 0 1-.83-.21 1.72 1.72 0 0 1-.89-1.51v-5.81A1.72 1.72 0 0 1 79 33.19l4.56 2.9a1.72 1.72 0 0 1 0 2.91L79 41.91a1.79 1.79 0 0 1-.93.26zm0-7.75a.16.16 0 0 0-.11 0 .2.2 0 0 0-.12.19v5.81a.22.22 0 0 0 .34.19l4.57-2.9a.22.22 0 0 0 .1-.19.2.2 0 0 0-.1-.19l-4.57-2.91zM83.57 74.1h-18a4.15 4.15 0 0 1-4.12-4.1V58.58a4.15 4.15 0 0 1 4.14-4.14h18a4.15 4.15 0 0 1 4.14 4.14V70a4.15 4.15 0 0 1-4.16 4.1zm-18-18.16A2.64 2.64 0 0 0 63 58.58V70a2.65 2.65 0 0 0 2.64 2.64h18A2.65 2.65 0 0 0 86.21 70V58.58a2.64 2.64 0 0 0-2.64-2.64z"/><path d="M74.58 64.62A3.46 3.46 0 1 1 78 61.16a3.46 3.46 0 0 1-3.42 3.46zm0-5.42a2 2 0 1 0 2 2 2 2 0 0 0-2-2z"/><path d="M74.58 67.14a6 6 0 0 1-3.89-1.44.75.75 0 1 1 1-1.14 4.58 4.58 0 0 0 5.82 0 .75.75 0 1 1 1 1.14 6 6 0 0 1-3.93 1.44z"/><path d="M69.35 69.85a.76.76 0 0 1-.75-.75 6 6 0 0 1 2.09-4.54.75.75 0 0 1 1 1.14 4.45 4.45 0 0 0-1.57 3.4.75.75 0 0 1-.77.75zM79.81 69.85a.75.75 0 0 1-.75-.75 4.45 4.45 0 0 0-1.57-3.4.75.75 0 1 1 1-1.14 6 6 0 0 1 2.09 4.54.76.76 0 0 1-.77.75zM12.92 76a.77.77 0 0 1-.48-.16c-.36-.3-8.9-7.37-8.52-18.13a.76.76 0 0 1 .43-.65l11.34-5.33a.73.73 0 0 1 .66 0 .75.75 0 0 1 .4.53c0 .13 2.24 12.27 8 17.07a.74.74 0 0 1 .26.68.75.75 0 0 1-.42.58L13.24 76a.77.77 0 0 1-.32 0zM5.41 58.26C5.33 66.83 11.49 73 13 74.41l9.88-4.65c-4.65-4.66-6.84-13.33-7.46-16.23z"/><path d="M7.46 74.34a3 3 0 0 1-2.67-1.69l-3.26-6.92A3 3 0 0 1 3 61.8l1.63-.8a.75.75 0 0 1 .63 1.36l-1.68.79a1.45 1.45 0 0 0-.69 1.93L6.14 72a1.45 1.45 0 0 0 1.94.69l1.81-.85a.75.75 0 0 1 .64 1.36l-1.81.85a3 3 0 0 1-1.26.29zM53.22 68.93c-1.8 0-4-1.31-6.43-3.87a49.09 49.09 0 0 1-8.18-12.56C34.2 43.11 31.92 32 36.4 29.89c2-.95 4.72.29 7.84 3.56A49.26 49.26 0 0 1 52.42 46a49 49 0 0 1 4.46 14.3c.53 4.49-.24 7.37-2.25 8.31a3.23 3.23 0 0 1-1.41.32zM37.8 31.09a1.7 1.7 0 0 0-.76.16c-2.62 1.23-2.04 10 2.96 20.61A47.36 47.36 0 0 0 47.88 64c2.52 2.65 4.8 3.86 6.11 3.24s1.83-3.14 1.4-6.77a47.25 47.25 0 0 0-4.33-13.84 47.28 47.28 0 0 0-7.91-12.16c-2.08-2.17-4.01-3.38-5.35-3.38z"/><path d="M16 53.2a.75.75 0 0 1-.41-1.38 49.19 49.19 0 0 0 10.87-9.47 46.74 46.74 0 0 0 3.25-4.62 29.85 29.85 0 0 1 5.73-7.17 5.91 5.91 0 0 1 .9-.64.75.75 0 0 1 .74 1.3 5 5 0 0 0-.68.49 28.44 28.44 0 0 0-5.4 6.83 48.32 48.32 0 0 1-3.36 4.77 50.23 50.23 0 0 1-11.2 9.76.71.71 0 0 1-.44.13zM24.25 70.71a.75.75 0 0 1-.25-1.47 51 51 0 0 1 14.66-2.41 48.92 48.92 0 0 1 5.82.46 28.76 28.76 0 0 0 8.72.17 5.29 5.29 0 0 0 .82-.22.75.75 0 0 1 .53 1.41 7.15 7.15 0 0 1-1.07.28 30 30 0 0 1-9.18-.15 44.94 44.94 0 0 0-5.63-.45 49.1 49.1 0 0 0-14.23 2.35.83.83 0 0 1-.19.03zM24.34 88.11a.71.71 0 0 1-.5-.19.69.69 0 0 1-.25-.57c.07-3.18-5.32-10.76-7.4-13.41a.77.77 0 0 1 .13-1.06.75.75 0 0 1 1.05.13c.75.95 6.9 8.9 7.64 13.45a16.37 16.37 0 0 0 5.85-2.75c-1.73-1.71-6.6-6.82-9-12.68a.73.73 0 0 1 .41-1 .75.75 0 0 1 1 .41C26 77.21 32.44 83.15 32.5 83.2a.77.77 0 0 1 .25.57.8.8 0 0 1-.26.56 17.4 17.4 0 0 1-8 3.78zM42 57.93a.74.74 0 0 1-.55-.24.75.75 0 0 1 .05-1.06l3.5-3.21A3.74 3.74 0 0 0 41.76 47l-4.48.85a.75.75 0 1 1-.28-1.51l4.48-.84a5.24 5.24 0 0 1 4.5 9l-3.52 3.21a.77.77 0 0 1-.46.22zM55.34 43.9a.76.76 0 0 1-.29-1.45l5.58-2.3a.75.75 0 1 1 .57 1.39l-5.57 2.3a.75.75 0 0 1-.29.06zM52.14 39.28a.72.72 0 0 1-.44-.14.74.74 0 0 1-.16-1l3.2-4.33a.75.75 0 0 1 1-.15.74.74 0 0 1 .15 1L52.75 39a.76.76 0 0 1-.61.28zM61.9 49.06h-5.42a.75.75 0 1 1 0-1.5h5.42a.75.75 0 1 1 0 1.5z"/></svg>