<svg xmlns="http://www.w3.org/2000/svg" width="229" height="230" style="shape-rendering:geometricPrecision;text-rendering:geometricPrecision;image-rendering:optimizeQuality;fill-rule:evenodd;clip-rule:evenodd"><path style="opacity:1" fill="#121212" d="M-.5-.5h229v230H-.5V-.5z"/><path style="opacity:1" fill="#efeb3f" d="M77.5 41.5c11.822-.995 23.822-1.328 36-1v17a388.71 388.71 0 0 0-17 .5 436.248 436.248 0 0 0-19-16.5z"/><path style="opacity:1" fill="#efea3f" d="M117.5 40.5c12.005-.166 24.005 0 36 .5l-19 17a929.915 929.915 0 0 0-17-.5v-17z"/><path style="opacity:1" fill="#e8e33e" d="M73.5 43.5c6.98 5.977 13.98 11.977 21 18-2.577 2.42-3.577 5.42-3 9a66.809 66.809 0 0 1-18.5-6c-.794-7.08-.628-14.08.5-21z"/><path style="opacity:1" fill="#ece73f" d="M156.5 43.5c.617.11 1.117.444 1.5 1a67.229 67.229 0 0 1-.5 20 76.828 76.828 0 0 1-16 6c-2.083-3.084-3.249-6.418-3.5-10a454.965 454.965 0 0 0 18.5-17z"/><path style="opacity:1" fill="#e9e53e" d="M101.5 61.5c9.672-.166 19.339 0 29 .5 4.057 1.947 5.557 5.114 4.5 9.5a122.878 122.878 0 0 0-9.5 4.5 9.457 9.457 0 0 0-1.5 2.5 93.205 93.205 0 0 0-2 17c-4.303 2.325-8.803 2.659-13.5 1 .41-6.12-.09-12.12-1.5-18-2.937-3.719-6.771-5.719-11.5-6-.824-5.36 1.176-9.027 6-11z"/><path style="opacity:1" fill="#676523" d="M74.5 69.5c-1.956 5.912-2.623 12.245-2 19-.99-6.479-1.324-13.146-1-20 1.291-.237 2.291.096 3 1z"/><path style="opacity:1" fill="#eee93f" d="M74.5 69.5c5.625 1.428 10.959 3.428 16 6v12c-5.526-.321-10.86.012-16 1h-2c-.623-6.755.044-13.088 2-19z"/><path style="opacity:1" fill="#e9e43e" d="M157.5 69.5c.99 6.145 1.323 12.478 1 19h-19a84.9 84.9 0 0 1 .5-13 786.503 786.503 0 0 1 17.5-6z"/><path style="opacity:1" fill="#696623" d="M157.5 69.5c.06-.543.393-.876 1-1 1.318 6.822 1.318 13.489 0 20 .323-6.522-.01-12.855-1-19z"/><path style="opacity:1" fill="#e4e03d" d="M94.5 76.5a18.625 18.625 0 0 1 8.5 3 93.334 93.334 0 0 1 2 18l2.5 2.5a162.154 162.154 0 0 1-8.5 2.5c-1.261-.259-2.261-.926-3-2a111.61 111.61 0 0 1-1.5-24z"/><path style="opacity:1" fill="#e1dd3d" d="M132.5 76.5h4a106.882 106.882 0 0 1-1.5 24c-3.739 2.142-7.572 1.975-11.5-.5a6.977 6.977 0 0 0 2.5-3.5l1-16c1.5-1.969 3.333-3.302 5.5-4z"/><path style="opacity:1" fill="#b3af33" d="M90.5 75.5c.985 4.134 1.318 8.468 1 13h-17c5.14-.988 10.474-1.321 16-1v-12z"/><path style="opacity:1" fill="#3e3d1b" d="M90.5 92.5h-18v14c-.987-4.805-1.32-9.805-1-15 6.522-.323 12.855.01 19 1z"/><path style="opacity:1" fill="#ebe63e" d="M90.5 92.5a379.57 379.57 0 0 1 2 10.5 226.457 226.457 0 0 1-17.5 5.5c-1.376-.184-2.209-.851-2.5-2v-14h18z"/><path style="opacity:1" fill="#e9e43e" d="M139.5 92.5h19v16a73.386 73.386 0 0 1-20-5 34.302 34.302 0 0 0 1-11z"/><path style="opacity:1" fill="#e4df3d" d="M111.5 102.5a46.166 46.166 0 0 1 17 3.5 5859.282 5859.282 0 0 1-12.5 8.5 87.783 87.783 0 0 1-13.5-8.5c3.231-.861 6.231-2.028 9-3.5zM92.5 107.5c3.622-.576 6.622.424 9 3a2122.124 2122.124 0 0 1-11 12l-14-10c5.44-1.687 10.774-3.354 16-5z"/><path style="opacity:1" fill="#e8e33e" d="M132.5 107.5a261.64 261.64 0 0 1 22 5 266.661 266.661 0 0 1-16.5 11c-3.445-2.855-6.445-6.188-9-10-.667-1-.667-2 0-3 1.518-.663 2.685-1.663 3.5-3z"/><path style="opacity:1" fill="#e9e43e" d="M104.5 113.5c2.842.672 5.342 2.006 7.5 4a67.229 67.229 0 0 1-.5 20 310.947 310.947 0 0 1-17-12.5 165.825 165.825 0 0 1 10-11.5z"/><path style="opacity:1" fill="#e4df3d" d="M122.5 114.5c1.322-.17 2.489.163 3.5 1l7.5 11a104.265 104.265 0 0 1-16 11 54.557 54.557 0 0 1-.5-18c2.191-1.333 4.024-3 5.5-5z"/><path style="opacity:1" fill="#a9a9a9" d="M111.5 152.5c7.816-.992 15.816-1.326 24-1v6h-21c6.479-.991 13.146-1.324 20-1v-4h-23z"/><path style="opacity:1" fill="#dbdbdb" d="M33.5 151.5h23v6c-7.34-.166-14.674 0-22 .5-1.317 6.136-1.317 12.303 0 18.5a121.86 121.86 0 0 0 22 1v5c-8.007.166-16.007 0-24-.5a9.457 9.457 0 0 1-2.5-1.5c-1.604-8.23-1.937-16.563-1-25 1.397-1.57 2.897-2.904 4.5-4z"/><path style="opacity:1" fill="#d7d7d7" d="M67.5 151.5v26h23v5a207.486 207.486 0 0 1-28.5-1c-.5-9.994-.666-19.994-.5-30h6z"/><path style="opacity:1" fill="#d1d1d1" d="M94.5 151.5h6v31h-6v-31z"/><path style="opacity:1" fill="#dcdcdc" d="M111.5 152.5h23v4c-6.854-.324-13.521.009-20 1-.617.111-1.117.444-1.5 1-.809 6.249-.642 12.416.5 18.5 7.326.5 14.659.666 22 .5v5c-8.34.166-16.673 0-25-.5l-2.5-2.5a72.173 72.173 0 0 1-1-23 25.14 25.14 0 0 1 4.5-4z"/><path style="opacity:1" fill="#dbdbdb" d="M140.5 151.5h6v31h-6v-31z"/><path style="opacity:1" fill="#dadada" d="M165.5 151.5a32.462 32.462 0 0 1 8 .5 117.182 117.182 0 0 0-16 15.5 307.286 307.286 0 0 1 15 14.5 16.242 16.242 0 0 1-8 0l-11-11a12.93 12.93 0 0 0-5-.5v-6a12.93 12.93 0 0 0 5-.5 210.447 210.447 0 0 0 12-12.5z"/><path style="opacity:1" fill="#d8d8d8" d="M176.5 151.5a94.81 94.81 0 0 1 23 1.5l2.5 2.5c.667 7.667.667 15.333 0 23l-3.5 3.5c-7.326.5-14.659.666-22 .5v-5c6.342.166 12.675 0 19-.5.923-2.041 1.256-4.208 1-6.5h-20v-6h21a11.988 11.988 0 0 0-1-6c-6.634-.997-13.3-1.33-20-1v-6z"/><path style="opacity:1" fill="#464646" d="M67.5 151.5c.993 8.15 1.326 16.483 1 25h23c.295 2.235-.039 4.235-1 6v-5h-23v-26z"/></svg>